<svg width="58" height="58" viewBox="0 0 58 58" fill="none" xmlns="http://www.w3.org/2000/svg">
<path d="M28.6582 0C44.4275 0 57.2118 12.7835 57.2119 28.5527C57.2119 44.3221 44.4276 57.1064 28.6582 57.1064C12.8889 57.1063 0.105469 44.322 0.105469 28.5527C0.105625 12.7836 12.889 0.000156681 28.6582 0ZM17.5459 46H37.9014V43.4092H17.5459V46ZM39.54 10.2549C38.7632 8.71128 34.6523 12.699 30.9863 17.5869C29.2641 19.8832 26.7316 24.4175 24.4395 28.6768L22.2656 32.752C21.5211 34.1547 20.8574 35.4057 20.3271 36.3779L18.6572 35.543V36.3779L19.9883 37.1387L17.5439 40.8047L20.3271 39.9961L21.2451 37.6758C27.355 36.4538 36.049 33.9749 36.1885 27.752C36.29 23.2161 28.6123 27.9406 24.9463 31.1992C24.9463 29.9772 31.6276 22.0169 32.8496 20.7949C33.8271 19.8173 33.837 18.8086 33.4297 18.8086C37.0231 16.3426 40.3628 11.8898 39.54 10.2549ZM22.1689 36.752C24.9447 31.2003 31.4745 26.3867 33.4297 27.3643C35.8726 28.5866 30.9849 33.4744 28.541 34.6963C26.5858 35.6739 23.3909 36.752 22.1689 36.752ZM32.0146 18.8477C32.422 18.8477 32.7139 19.54 31.7363 20.5176L30.3398 21.9053C30.1119 22.1304 29.9235 22.3158 29.7637 22.4756L32.0146 18.8477ZM37.2998 12.168C37.2997 12.5755 36.8496 14.1651 35.8721 15.1426C34.8945 16.12 33.6623 16.7695 32.8477 17.1768L37.2998 12.168Z" fill="#12171A"/>
</svg>
