<svg width="65" height="65" viewBox="0 0 65 65" fill="none" xmlns="http://www.w3.org/2000/svg">
<path fill-rule="evenodd" clip-rule="evenodd" d="M0.583984 11.9102C0.583984 5.87334 5.47784 0.979492 11.5147 0.979492H53.6533C59.6901 0.979492 64.584 5.87334 64.584 11.9102V54.0488C64.584 60.0856 59.6901 64.9795 53.6533 64.9795H11.5147C5.47784 64.9795 0.583984 60.0856 0.583984 54.0488V11.9102ZM16.5838 50.8221L20.1057 45.5393L18.1879 44.4432V43.2402L20.5939 44.4432C21.3582 43.0421 22.315 41.2392 23.3881 39.2174L23.3882 39.2172L23.3883 39.2172C27.2602 31.9221 32.6451 21.7764 35.9542 17.3643C41.237 10.3205 47.1613 4.57408 48.2807 6.79863C49.4663 9.15457 44.6542 15.5708 39.476 19.1244C40.063 19.1244 40.0479 20.5782 38.6391 21.9869C36.8782 23.7478 27.2505 35.2188 27.2505 36.9797C32.5333 32.2839 43.5975 25.4757 43.4512 32.0121C43.2505 40.9797 30.7219 44.5521 21.9172 46.3131L20.5939 49.6563L16.5838 50.8221ZM38.6384 16.7741L45.0545 9.55603C45.0545 10.143 44.4058 12.4336 42.9971 13.8423C41.5883 15.2511 39.8124 16.1872 38.6384 16.7741ZM37.4361 19.181L34.1928 24.4082C34.4231 24.178 34.6933 23.911 35.0217 23.5866L35.0218 23.5865L35.0223 23.586C35.531 23.0834 36.1793 22.4429 37.0351 21.5871C38.4439 20.1783 38.0231 19.181 37.4361 19.181ZM39.4778 31.4524C42.9997 33.2134 35.9559 40.2577 32.4341 42.0186C29.6166 43.4274 25.0127 44.9806 23.2518 44.9806C27.2518 36.9804 36.6603 30.0437 39.4778 31.4524ZM45.9177 58.3121H16.5844V54.5788H45.9177V58.3121Z" fill="black"/>
</svg>
