<svg width="58" height="58" viewBox="0 0 58 58" fill="none" xmlns="http://www.w3.org/2000/svg">
<path d="M28.5527 0C44.322 0 57.1063 12.7835 57.1064 28.5527C57.1064 44.3221 44.3221 57.1064 28.5527 57.1064C12.7835 57.1063 0 44.322 0 28.5527C0.000156691 12.7836 12.7836 0.000156681 28.5527 0ZM17.666 16.25C15.3257 16.2504 13.4162 18.1596 13.416 20.5V37.5C13.4162 39.8404 15.3257 41.7496 17.666 41.75H40.333C42.6736 41.75 44.5828 39.8406 44.583 37.5V20.5C44.5828 18.1594 42.6736 16.25 40.333 16.25H17.666ZM41.75 37.5C41.7498 38.2758 41.1088 38.917 40.333 38.917H17.666C16.8905 38.9166 16.2502 38.2756 16.25 37.5V23.2207L28.1875 31.5771C28.6752 31.9185 29.3248 31.9183 29.8125 31.5771L41.75 23.2207V37.5ZM40.333 19.084C40.8825 19.084 41.3623 19.406 41.5967 19.8691L28.999 28.6875L16.4014 19.8691C16.6355 19.4059 17.1166 19.0842 17.666 19.084H40.333Z" fill="#12171A"/>
</svg>
