<svg width="64" height="65" viewBox="0 0 64 65" fill="none" xmlns="http://www.w3.org/2000/svg">
<path fill-rule="evenodd" clip-rule="evenodd" d="M0 11.9102C0 5.87334 4.89385 0.979492 10.9307 0.979492H53.0693C59.1061 0.979492 64 5.87334 64 11.9102V54.0488C64 60.0856 59.1061 64.9795 53.0693 64.9795H10.9307C4.89385 64.9795 0 60.0856 0 54.0488V11.9102ZM17.8578 20.8868C17.3143 20.8868 16.7931 21.1027 16.4088 21.487C16.2587 21.637 16.1344 21.808 16.0385 21.9929L32.2026 32.769L48.3664 21.9931C48.2706 21.8081 48.1461 21.6371 47.996 21.487C47.6117 21.1027 47.0905 20.8868 46.547 20.8868H17.8578ZM52.6945 22.882C52.6803 21.271 52.0343 19.7291 50.8941 18.5889C49.7412 17.436 48.1775 16.7883 46.547 16.7883H17.8578C16.2273 16.7883 14.6636 17.436 13.5107 18.5889C12.3588 19.7409 11.7112 21.3029 11.7101 22.9318C11.7101 22.9332 11.7101 22.9346 11.7101 22.936V43.4283C11.7101 45.0588 12.3578 46.6225 13.5107 47.7754C14.6636 48.9283 16.2273 49.576 17.8578 49.576H46.547C48.1775 49.576 49.7412 48.9283 50.8941 47.7754C52.047 46.6225 52.6947 45.0588 52.6947 43.4283V22.977C52.6954 22.9454 52.6953 22.9137 52.6945 22.882ZM48.5962 26.7657L33.3393 36.937C32.651 37.3958 31.7543 37.3958 31.0659 36.937L15.8086 26.7654V43.4283C15.8086 43.9718 16.0245 44.493 16.4088 44.8773C16.7931 45.2616 17.3143 45.4775 17.8578 45.4775H46.547C47.0905 45.4775 47.6117 45.2616 47.996 44.8773C48.3803 44.493 48.5962 43.9718 48.5962 43.4283V26.7657Z" fill="black"/>
</svg>
