<svg width="58" height="58" viewBox="0 0 58 58" fill="none" xmlns="http://www.w3.org/2000/svg">
<path d="M28.5527 0C44.322 0 57.1063 12.7835 57.1064 28.5527C57.1064 44.3221 44.3221 57.1064 28.5527 57.1064C12.7835 57.1063 0 44.322 0 28.5527C0.000156691 12.7836 12.7836 0.000156681 28.5527 0ZM21.9902 13C19.6059 13 17.3188 13.9469 15.6328 15.6328C13.9469 17.3188 13 19.6059 13 21.9902V35.0098C13 39.9698 17.0302 44 21.9902 44H35.0098C37.3941 44 39.6812 43.0531 41.3672 41.3672C43.0531 39.6812 44 37.3941 44 35.0098V21.9902C44 17.0302 39.9698 13 35.0098 13H21.9902ZM35.3203 16.0996C38.4046 16.0998 40.9002 18.5954 40.9004 21.6797V35.3203C40.9003 36.8001 40.312 38.2192 39.2656 39.2656C38.2192 40.312 36.8001 40.9003 35.3203 40.9004H21.6797C18.5954 40.9002 16.0998 38.4046 16.0996 35.3203V21.6797C16.0997 20.1999 16.688 18.7808 17.7344 17.7344C18.7808 16.688 20.1999 16.0997 21.6797 16.0996H35.3203ZM28.5 20.75C26.4446 20.75 24.4729 21.5661 23.0195 23.0195C21.5661 24.4729 20.75 26.4446 20.75 28.5C20.75 30.5554 21.5661 32.5271 23.0195 33.9805C24.4729 35.4339 26.4446 36.25 28.5 36.25C30.5554 36.25 32.5271 35.4339 33.9805 33.9805C35.4339 32.5271 36.25 30.5554 36.25 28.5C36.25 26.4446 35.4339 24.4729 33.9805 23.0195C32.5271 21.5661 30.5554 20.75 28.5 20.75ZM28.5 23.8496C29.7333 23.8496 30.916 24.3399 31.7881 25.2119C32.6601 26.084 33.1504 27.2667 33.1504 28.5C33.1504 29.7333 32.6601 30.916 31.7881 31.7881C30.916 32.6601 29.7333 33.1504 28.5 33.1504C27.2667 33.1504 26.084 32.6601 25.2119 31.7881C24.3399 30.916 23.8496 29.7333 23.8496 28.5C23.8496 27.2667 24.3399 26.084 25.2119 25.2119C26.084 24.3399 27.2667 23.8496 28.5 23.8496ZM36.6377 18.4248C36.1239 18.4248 35.6309 18.629 35.2676 18.9922C34.9043 19.3555 34.7002 19.8485 34.7002 20.3623C34.7002 20.8762 34.9042 21.3691 35.2676 21.7324C35.6309 22.0958 36.1238 22.2998 36.6377 22.2998C37.1515 22.2998 37.6445 22.0957 38.0078 21.7324C38.371 21.3691 38.5752 20.8761 38.5752 20.3623C38.5751 19.8485 38.3711 19.3555 38.0078 18.9922C37.6445 18.6289 37.1515 18.4249 36.6377 18.4248Z" fill="#12171A"/>
</svg>
