<svg width="58" height="58" viewBox="0 0 58 58" fill="none" xmlns="http://www.w3.org/2000/svg">
<path d="M28.5527 0C44.322 0 57.1063 12.7835 57.1064 28.5527C57.1064 44.3221 44.3221 57.1064 28.5527 57.1064C12.7835 57.1063 0 44.322 0 28.5527C0.000156691 12.7836 12.7836 0.000156681 28.5527 0ZM14.4473 24.9707V43.999H20.7441V24.9707H14.4473ZM36.5898 24.5391C34.6575 24.5391 32.4066 25.7209 31.3154 27.4941V24.9707H24.9727V43.999H31.3154V32.791C31.3154 31.0405 32.7251 29.6084 34.4756 29.6084C35.3193 29.6086 36.129 29.9435 36.7256 30.54C37.3222 31.1369 37.6582 31.9471 37.6582 32.791V43.999H44.001V31.9502C44.001 29.9849 43.2196 28.0988 41.8301 26.709C40.4405 25.3194 38.555 24.5393 36.5898 24.5391ZM17.584 13.7402C16.5651 13.7403 15.5877 14.1448 14.8672 14.8652C14.1467 15.5857 13.7422 16.5631 13.7422 17.582C13.7425 19.696 15.47 21.4013 17.584 21.4014C18.5967 21.4012 19.569 20.9993 20.2852 20.2832C21.0013 19.5671 21.4032 18.5948 21.4033 17.582C21.4032 15.4681 19.6979 13.7405 17.584 13.7402Z" fill="#12171A"/>
</svg>
