<svg width="65" height="65" viewBox="0 0 65 65" fill="none" xmlns="http://www.w3.org/2000/svg">
<path fill-rule="evenodd" clip-rule="evenodd" d="M11.6837 0.979492C5.64678 0.979492 0.75293 5.87334 0.75293 11.9102V54.0488C0.75293 60.0856 5.64678 64.9795 11.6837 64.9795H53.8222C59.8591 64.9795 64.7529 60.0856 64.7529 54.0488V11.9102C64.7529 5.87334 59.8591 0.979492 53.8222 0.979492H11.6837ZM54.7999 37.7505V55.0246H45.7066V38.9565C45.7066 37.7463 45.2258 36.5857 44.3701 35.7299C43.5144 34.8742 42.3538 34.3935 41.1436 34.3935C38.634 34.3935 36.6132 36.4468 36.6132 38.9565V55.0246H27.5199V27.7446H36.6132V31.3624C38.1777 28.8202 41.4043 27.1253 44.1747 27.1253C46.9927 27.1253 49.6952 28.2448 51.6879 30.2374C53.6805 32.23 54.7999 34.9326 54.7999 37.7505ZM20.7991 21.0238C19.7722 22.0507 18.3795 22.6276 16.9273 22.6276C13.8962 22.6276 11.4192 20.1831 11.4192 17.152C11.4192 15.6912 11.9995 14.2901 13.0325 13.2572C14.0654 12.2242 15.4664 11.6439 16.9273 11.6439C19.9584 11.6439 22.4029 14.1209 22.4029 17.152C22.4029 18.6042 21.826 19.9969 20.7991 21.0238ZM21.4577 27.7446V55.0246H12.4295V27.7446H21.4577Z" fill="black"/>
</svg>
