<svg width="29" height="29" viewBox="0 0 29 29" fill="none" xmlns="http://www.w3.org/2000/svg">
<path d="M7.25065 26.584C6.58607 26.584 6.01735 26.3476 5.54448 25.8747C5.07162 25.4018 4.83479 24.8327 4.83398 24.1673V12.084C4.83398 11.4194 5.07082 10.8507 5.54448 10.3778C6.01815 9.90496 6.58687 9.66812 7.25065 9.66732H8.45898V7.25065C8.45898 5.57912 9.04825 4.1545 10.2268 2.97678C11.4053 1.79905 12.8299 1.20979 14.5007 1.20899C16.1714 1.20818 17.5964 1.79744 18.7757 2.97678C19.9551 4.15611 20.5439 5.58074 20.5423 7.25065V9.66732H21.7507C22.4152 9.66732 22.9844 9.90415 23.458 10.3778C23.9317 10.8515 24.1681 11.4202 24.1673 12.084V24.1673C24.1673 24.8319 23.9309 25.401 23.458 25.8747C22.9852 26.3484 22.416 26.5848 21.7507 26.584H7.25065ZM7.25065 24.1673H21.7507V12.084H7.25065V24.1673ZM16.208 19.8318C16.6809 19.3598 16.9173 18.791 16.9173 18.1257C16.9173 17.4603 16.6809 16.8915 16.208 16.4195C15.7352 15.9474 15.166 15.7106 14.5007 15.709C13.8353 15.7074 13.2665 15.9442 12.7945 16.4195C12.3224 16.8948 12.0856 17.4635 12.084 18.1257C12.0824 18.7878 12.3192 19.3569 12.7945 19.833C13.2698 20.3091 13.8385 20.5455 14.5007 20.5423C15.1628 20.5391 15.7319 20.3015 16.208 19.8318ZM10.8757 9.66732H18.1257V7.25065C18.1257 6.24371 17.7732 5.3878 17.0684 4.68294C16.3635 3.97808 15.5076 3.62565 14.5007 3.62565C13.4937 3.62565 12.6378 3.97808 11.9329 4.68294C11.2281 5.3878 10.8757 6.24371 10.8757 7.25065V9.66732Z" fill="#12171A"/>
</svg>
