<svg width="64" height="64" viewBox="0 0 64 64" fill="none" xmlns="http://www.w3.org/2000/svg">
<path d="M11.2267 3.18406e-05C9.75139 -0.00348496 8.28994 0.284501 6.92627 0.847447C5.56261 1.41039 4.32359 2.23721 3.2804 3.2804C2.23721 4.32359 1.41039 5.56261 0.847447 6.92627C0.284501 8.28994 -0.00348498 9.75139 3.18247e-05 11.2267V52.7733C-0.00348498 54.2486 0.284501 55.7101 0.847447 57.0737C1.41039 58.4374 2.23721 59.6764 3.2804 60.7196C4.32359 61.7628 5.56261 62.5896 6.92627 63.1525C8.28994 63.7155 9.75139 64.0035 11.2267 64H52.7733C54.2486 64.0035 55.71 63.7155 57.0737 63.1525C58.4374 62.5896 59.6764 61.7628 60.7196 60.7196C61.7628 59.6764 62.5896 58.4374 63.1525 57.0737C63.7155 55.7101 64.0035 54.2486 64 52.7733V49.8586C63.6258 49.8923 63.2503 49.9101 62.8746 49.912C56.0026 49.912 52.136 44.1893 51.968 37.0267C51.9596 36.3968 51.9792 35.7668 52.0266 35.1387C52.2746 31.976 53.2933 29.1627 54.9733 27.08C55.9711 25.8291 57.2441 24.8253 58.6933 24.1467C59.9413 23.5147 61.6986 23.168 63.1306 23.168H63.192C63.4604 23.168 63.7297 23.1769 64 23.1947V11.2294C64.0038 9.75384 63.7161 8.2921 63.1533 6.92812C62.5905 5.56414 61.7638 4.32482 60.7205 3.28134C59.6773 2.23787 58.4382 1.41081 57.0743 0.8477C55.7105 0.284587 54.2488 -0.00348638 52.7733 3.18406e-05H11.2267ZM11.7547 14.888H22.8613L32.4293 37.3813L42.0027 14.888H52.3066V15.2773L52.256 15.288C50.376 15.7147 49.4213 16.3467 49.4213 18.632H49.4133L49.4213 46.0293C49.5813 47.832 50.552 48.3893 52.256 48.776L52.3093 48.7866V49.1733H39.1813V48.7866L39.232 48.7733C40.936 48.3893 41.8827 47.832 42.0427 46.0266V19.3787L29.3893 49.112H28.6933L16.4 20.184V45.3706C16.4 47.656 17.3547 48.288 19.2347 48.712L19.288 48.7226V49.1146H11.7467V48.7226L11.7974 48.712C13.6773 48.2853 14.6373 47.6533 14.6373 45.3706V18.632C14.6373 16.3467 13.6827 15.7147 11.8 15.288L11.752 15.2773L11.7547 14.888ZM63.088 24.6693C60.192 24.7307 58.4666 28.1973 58.2533 33H64V24.7947C63.7023 24.7154 63.396 24.6733 63.088 24.6693ZM58.1226 34.3547C57.856 39.0373 60.416 42.992 64 44.0453V34.3547H58.1226Z" fill="black"/>
</svg>
