<svg width="58" height="58" viewBox="0 0 58 58" fill="none" xmlns="http://www.w3.org/2000/svg">
<path d="M29.0742 0C42.2779 0 53.3855 8.9628 56.6514 21.1357C56.5356 21.1321 56.42 21.1299 56.3047 21.1299H56.251C55.0179 21.1299 53.5043 21.4295 52.4297 21.9736C51.1821 22.5579 50.0857 23.4221 49.2266 24.499C47.78 26.2926 46.902 28.716 46.6885 31.4395C46.6477 31.98 46.6315 32.5224 46.6387 33.0645C46.7589 38.1868 49.0768 42.4501 53.248 43.75C48.1935 51.7737 39.2576 57.1064 29.0742 57.1064C13.3048 57.1064 0.521484 44.3221 0.521484 28.5527C0.521641 12.7835 13.3049 2.44769e-05 29.0742 0ZM12.0078 14L12.0049 14.335L12.0459 14.3438C13.667 14.7112 14.4892 15.2557 14.4893 17.2236V40.251C14.4891 42.2162 13.6618 42.7605 12.043 43.1279L12 43.1367V43.4746H18.4951V43.1367L18.4482 43.1279C16.8297 42.7628 16.007 42.2183 16.0068 40.251V18.5605L26.5938 43.4736H27.1934L38.0908 17.8662V40.8145C37.9531 42.3688 37.1377 42.849 35.6709 43.1797L35.626 43.1924V43.5254H46.9316V43.1924L46.8857 43.1836C45.4189 42.8507 44.5833 42.3701 44.4453 40.8184L44.4385 17.2236H44.4453C44.4453 15.2559 45.2672 14.7112 46.8857 14.3438L46.9307 14.335V14H38.0566L29.8115 33.3711L21.5713 14H12.0078ZM56.2148 22.4238C56.4756 22.4272 56.7351 22.4623 56.9873 22.5283C57.4045 24.4706 57.6269 26.4857 57.627 28.5527C57.627 32.0922 56.9809 35.4805 55.8037 38.6084C53.3641 37.2699 51.7409 34.2521 51.9395 30.7637H57V29.5967H52.0508C52.2346 25.461 53.7211 22.4768 56.2148 22.4238Z" fill="#12171A"/>
</svg>
